<?xml version="1.0" encoding="utf-8"?>
<!-- Generator: Adobe Illustrator 17.1.0, SVG Export Plug-In . SVG Version: 6.00 Build 0)  -->
<!DOCTYPE svg PUBLIC "-//W3C//DTD SVG 1.1//EN" "http://www.w3.org/Graphics/SVG/1.1/DTD/svg11.dtd">
<svg version="1.1" id="Layer_1" xmlns="http://www.w3.org/2000/svg" xmlns:xlink="http://www.w3.org/1999/xlink" x="0px" y="0px"
	 viewBox="0 0 14.3 14.3" enable-background="new 0 0 14.3 14.3" xml:space="preserve">
<g>
	<path fill="#FFFFFF" d="M14.3,11.5c0,0.3-0.1,0.6-0.3,0.8L12.3,14c-0.2,0.2-0.5,0.3-0.8,0.3s-0.6-0.1-0.8-0.3l-3.5-3.5L3.6,14
		c-0.2,0.2-0.5,0.3-0.8,0.3S2.2,14.2,2,14l-1.6-1.6C0.1,12.1,0,11.8,0,11.5c0-0.3,0.1-0.6,0.3-0.8l3.5-3.5L0.3,3.6
		C0.1,3.4,0,3.1,0,2.8C0,2.5,0.1,2.2,0.3,2L2,0.3C2.2,0.1,2.5,0,2.8,0s0.6,0.1,0.8,0.3l3.5,3.5l3.5-3.5C10.9,0.1,11.2,0,11.5,0
		s0.6,0.1,0.8,0.3L14,2c0.2,0.2,0.3,0.5,0.3,0.8c0,0.3-0.1,0.6-0.3,0.8l-3.5,3.5l3.5,3.5C14.2,10.9,14.3,11.2,14.3,11.5z"/>
</g>
</svg>
