<?xml version="1.0" encoding="utf-8"?>
<!-- Generator: Adobe Illustrator 18.1.0, SVG Export Plug-In . SVG Version: 6.00 Build 0)  -->
<svg version="1.1" xmlns="http://www.w3.org/2000/svg" xmlns:xlink="http://www.w3.org/1999/xlink" x="0px" y="0px"
	 viewBox="0 0 72.6 67" enable-background="new 0 0 72.6 67" xml:space="preserve">
<g id="Layer_1">
	<g>
		<path fill="#FFFFFF" d="M61.4,43.2v11.3c0,3.5-1.2,6.4-3.7,8.9c-2.5,2.5-5.4,3.7-8.9,3.7H12.6c-3.5,0-6.4-1.2-8.9-3.7
			C1.2,60.9,0,57.9,0,54.5V18.2c0-3.5,1.2-6.4,3.7-8.9c2.5-2.5,5.4-3.7,8.9-3.7h11.1c0.4,0,0.7,0.1,1,0.4c0.3,0.3,0.4,0.6,0.4,1
			c0,0.8-0.4,1.3-1.1,1.4c-2.2,0.8-4.2,1.6-5.8,2.6c-0.3,0.1-0.5,0.2-0.7,0.2h-4.9c-1.9,0-3.6,0.7-4.9,2.1c-1.4,1.4-2.1,3-2.1,4.9
			v36.3c0,1.9,0.7,3.6,2.1,4.9c1.4,1.4,3,2.1,4.9,2.1h36.3c1.9,0,3.6-0.7,4.9-2.1c1.4-1.4,2.1-3,2.1-4.9v-9.3c0-0.6,0.3-1,0.8-1.3
			c0.8-0.4,1.6-0.9,2.4-1.6c0.5-0.5,1-0.6,1.5-0.3C61.1,42.1,61.4,42.6,61.4,43.2z M71.8,21.5L55,38.3c-0.5,0.6-1.2,0.8-2,0.8
			c-0.3,0-0.7-0.1-1.1-0.2c-1.1-0.5-1.7-1.4-1.7-2.6v-8.4h-7c-9.4,0-15.8,1.9-19.1,5.7c-3.5,4-4.5,10.9-3.2,20.6
			c0.1,0.7-0.2,1.2-0.9,1.5c-0.2,0.1-0.4,0.1-0.5,0.1c-0.5,0-0.8-0.2-1.1-0.6c-0.3-0.4-0.6-0.9-0.9-1.4c-0.3-0.5-0.9-1.5-1.7-3
			c-0.8-1.5-1.5-2.9-2.2-4.3c-0.6-1.4-1.2-3.1-1.7-5c-0.5-1.9-0.8-3.7-0.8-5.3c0-1.4,0.1-2.7,0.2-4c0.1-1.2,0.3-2.5,0.6-3.9
			c0.3-1.4,0.7-2.7,1.2-3.8c0.5-1.2,1.2-2.3,2.1-3.6c0.9-1.2,1.9-2.3,3-3.2c1.1-0.9,2.5-1.8,4.1-2.7c1.6-0.8,3.4-1.5,5.4-2.1
			c2-0.6,4.3-1,7-1.3c2.6-0.3,5.5-0.5,8.6-0.5h7V2.8c0-1.2,0.6-2.1,1.7-2.6C52.3,0.1,52.7,0,53.1,0c0.8,0,1.4,0.3,2,0.8l16.8,16.8
			c0.6,0.6,0.8,1.2,0.8,2C72.6,20.3,72.3,21,71.8,21.5z"/>
	</g>
</g>
<g id="Layer_3">
</g>
<g id="rollover_states__x2F__drop_down" display="none">
</g>
</svg>
