<?xml version="1.0" encoding="utf-8"?>
<!-- Generator: Adobe Illustrator 17.1.0, SVG Export Plug-In . SVG Version: 6.00 Build 0)  -->
<!DOCTYPE svg PUBLIC "-//W3C//DTD SVG 1.1//EN" "http://www.w3.org/Graphics/SVG/1.1/DTD/svg11.dtd">
<svg version="1.1" id="Layer_1" xmlns="http://www.w3.org/2000/svg" xmlns:xlink="http://www.w3.org/1999/xlink" x="0px" y="0px"
	 viewBox="0 0 14 14" enable-background="new 0 0 14 14" xml:space="preserve">
<path fill="#FFFFFF" d="M12.2,4.3c0,0.1,0,0.2,0,0.3c0,3.5-2.7,7.6-7.6,7.6c-1.5,0-2.9-0.4-4.1-1.2c0.2,0,0.4,0,0.6,0
	c1.3,0,2.4-0.4,3.3-1.1C3.3,10,2.3,9.2,2,8.1c0.2,0,0.3,0,0.5,0c0.2,0,0.5,0,0.7-0.1C1.9,7.8,1,6.8,1,5.5c0,0,0,0,0,0
	c0.4,0.2,0.8,0.3,1.2,0.3C1.5,5.3,1,4.5,1,3.5c0-0.5,0.1-0.9,0.4-1.3C2.7,3.8,4.7,4.9,6.9,5c0-0.2-0.1-0.4-0.1-0.6
	c0-1.5,1.2-2.7,2.7-2.7c0.8,0,1.5,0.3,1.9,0.8c0.6-0.1,1.2-0.3,1.7-0.6c-0.2,0.6-0.6,1.1-1.2,1.5C12.5,3.3,13,3.2,13.5,3
	C13.1,3.5,12.7,4,12.2,4.3z"/>
</svg>
